<svg width="800" height="400" xmlns="http://www.w3.org/2000/svg">
  <defs>
    <linearGradient id="bg3" x1="0%" y1="0%" x2="100%" y2="100%">
      <stop offset="0%" style="stop-color:#dcfce7;stop-opacity:1" />
      <stop offset="100%" style="stop-color:#bbf7d0;stop-opacity:1" />
    </linearGradient>
  </defs>
  <rect width="800" height="400" fill="url(#bg3)"/>

  <!-- Project/Building icon -->
  <g transform="translate(250, 120)">
    <!-- Buildings -->
    <rect x="0" y="50" width="80" height="130" fill="#065f46" rx="5"/>
    <rect x="10" y="70" width="20" height="20" fill="rgba(255,255,255,0.3)"/>
    <rect x="10" y="100" width="20" height="20" fill="rgba(255,255,255,0.3)"/>
    <rect x="10" y="130" width="20" height="20" fill="rgba(255,255,255,0.3)"/>
    <rect x="50" y="70" width="20" height="20" fill="rgba(255,255,255,0.3)"/>
    <rect x="50" y="100" width="20" height="20" fill="rgba(255,255,255,0.3)"/>
    <rect x="50" y="130" width="20" height="20" fill="rgba(255,255,255,0.3)"/>

    <rect x="100" y="30" width="100" height="150" fill="#047857" rx="5"/>
    <rect x="115" y="50" width="25" height="25" fill="rgba(255,255,255,0.3)"/>
    <rect x="115" y="85" width="25" height="25" fill="rgba(255,255,255,0.3)"/>
    <rect x="115" y="120" width="25" height="25" fill="rgba(255,255,255,0.3)"/>
    <rect x="155" y="50" width="25" height="25" fill="rgba(255,255,255,0.3)"/>
    <rect x="155" y="85" width="25" height="25" fill="rgba(255,255,255,0.3)"/>
    <rect x="155" y="120" width="25" height="25" fill="rgba(255,255,255,0.3)"/>

    <rect x="220" y="70" width="70" height="110" fill="#10b981" rx="5"/>
    <rect x="230" y="90" width="18" height="18" fill="rgba(255,255,255,0.3)"/>
    <rect x="230" y="118" width="18" height="18" fill="rgba(255,255,255,0.3)"/>
    <rect x="262" y="90" width="18" height="18" fill="rgba(255,255,255,0.3)"/>
    <rect x="262" y="118" width="18" height="18" fill="rgba(255,255,255,0.3)"/>
  </g>

  <!-- Text -->
  <text x="400" y="350" font-family="Arial, sans-serif" font-size="42" font-weight="bold" fill="#065f46" text-anchor="middle">
    Proyectos Municipales
  </text>
</svg>
