<svg width="800" height="400" viewBox="0 0 800 400" xmlns="http://www.w3.org/2000/svg">
  <defs>
    <linearGradient id="recurGrad" x1="0%" y1="0%" x2="100%" y2="100%">
      <stop offset="0%" style="stop-color:#ecfdf5;stop-opacity:1" />
      <stop offset="100%" style="stop-color:#d1fae5;stop-opacity:1" />
    </linearGradient>
  </defs>

  <rect width="800" height="400" fill="url(#recurGrad)"/>

  <!-- Bookshelf -->
  <g transform="translate(150, 100)">
    <!-- Shelf -->
    <rect x="0" y="0" width="500" height="250" rx="10" fill="#065f46" opacity="0.9"/>
    <rect x="10" y="80" width="480" height="8" fill="#047857"/>
    <rect x="10" y="170" width="480" height="8" fill="#047857"/>

    <!-- Books row 1 -->
    <rect x="30" y="20" width="40" height="55" fill="#10b981"/>
    <rect x="75" y="20" width="35" height="55" fill="#047857"/>
    <rect x="115" y="20" width="45" height="55" fill="#34d399"/>
    <rect x="165" y="20" width="38" height="55" fill="#10b981"/>
    <rect x="208" y="20" width="42" height="55" fill="#065f46"/>
    <rect x="255" y="20" width="40" height="55" fill="#047857"/>
    <rect x="300" y="20" width="36" height="55" fill="#10b981"/>
    <rect x="341" y="20" width="44" height="55" fill="#34d399"/>
    <rect x="390" y="20" width="38" height="55" fill="#047857"/>
    <rect x="433" y="20" width="40" height="55" fill="#10b981"/>

    <!-- Books row 2 -->
    <rect x="30" y="110" width="45" height="55" fill="#047857"/>
    <rect x="80" y="110" width="38" height="55" fill="#10b981"/>
    <rect x="123" y="110" width="42" height="55" fill="#34d399"/>
    <rect x="170" y="110" width="40" height="55" fill="#065f46"/>
    <rect x="215" y="110" width="36" height="55" fill="#10b981"/>
    <rect x="256" y="110" width="44" height="55" fill="#047857"/>
    <rect x="305" y="110" width="40" height="55" fill="#34d399"/>
    <rect x="350" y="110" width="38" height="55" fill="#10b981"/>
    <rect x="393" y="110" width="42" height="55" fill="#047857"/>
    <rect x="440" y="110" width="38" height="55" fill="#065f46"/>

    <!-- Books row 3 -->
    <rect x="30" y="200" width="42" height="45" fill="#10b981"/>
    <rect x="77" y="200" width="40" height="45" fill="#047857"/>
    <rect x="122" y="200" width="38" height="45" fill="#34d399"/>
    <rect x="165" y="200" width="44" height="45" fill="#10b981"/>
    <rect x="214" y="200" width="36" height="45" fill="#065f46"/>
    <rect x="255" y="200" width="42" height="45" fill="#047857"/>
    <rect x="302" y="200" width="40" height="45" fill="#10b981"/>
    <rect x="347" y="200" width="38" height="45" fill="#34d399"/>
    <rect x="390" y="200" width="44" height="45" fill="#047857"/>
    <rect x="439" y="200" width="38" height="45" fill="#10b981"/>
  </g>

  <!-- Magnifying glass -->
  <g transform="translate(650, 250)">
    <circle cx="0" cy="0" r="50" fill="none" stroke="#065f46" stroke-width="6"/>
    <line x1="35" y1="35" x2="70" y2="70" stroke="#065f46" stroke-width="6" stroke-linecap="round"/>
  </g>
</svg>
